<svg xmlns="http://www.w3.org/2000/svg" width="2774" height="457" viewBox="0 0 2774 457">
  <g fill="none" fill-rule="evenodd">
    <path fill="#0098FF" d="M343.61717,154.359677 L343.61717,74.1015935 C343.61717,57.6723548 334.131879,42.2184903 318.865931,33.7891097 C296.01175,21.1718839 246.518221,0 171.808137,0 C97.0980535,0 47.6045245,21.1718839 24.7503439,33.7891097 C9.48439548,42.2184903 -0.00089483871,57.6723548 -0.00089483871,74.1015935 L-0.00089483871,194.627419 L272.030073,268.451613 L272.030073,322.141935 C272.030073,329.416974 267.16215,334.508606 258.884892,338.284826 L171.808137,379.187903 L84.2839632,338.079013 C76.4541245,334.508606 71.5862019,329.416974 71.5862019,322.141935 L71.5862019,281.874194 L-0.00089483871,261.740323 L-0.00089483871,322.141935 C-0.00089483871,355.304658 20.2850987,383.509974 52.4992923,398.212174 L171.808137,456.367742 L290.669563,398.417987 C323.331176,383.509974 343.61717,355.304658 343.61717,322.141935 L343.61717,221.472581 L71.5862019,147.648387 L71.5862019,86.3698323 C91.0220987,77.5735677 124.157976,67.1129032 171.808137,67.1129032 C219.458299,67.1129032 252.594176,77.5735677 272.030073,86.3698323 L272.030073,134.225806 L343.61717,154.359677 Z"/>
    <path fill="#000028" d="M700.006372,342.275806 C656.991475,342.275806 620.124121,329.157471 587.015088,309.63209 L607.497946,280.50509 C640.606979,300.352613 670.995701,309.954232 705.12485,309.954232 C745.07045,309.954232 763.844166,295.547329 763.844166,278.590135 C763.844166,229.946703 594.862824,259.064755 594.862824,181.616465 C594.862824,143.854271 635.148463,114.091935 700.006372,114.091935 C743.701346,114.091935 781.597766,129.456316 803.780817,150.252368 L778.519521,174.583032 C759.405766,158.89651 730.046108,146.41351 699.326295,146.41351 C661.429875,146.41351 635.82854,159.218652 635.82854,177.455465 C635.82854,222.582181 805.149921,198.582606 805.149921,274.751277 C805.149921,315.07271 761.794985,342.275806 700.006372,342.275806"/>
    <polygon fill="#000028" points="970.721 249.146 970.721 334.595 929.755 334.595 929.755 248.824 827.35 121.453 875.134 121.453 951.947 220.019 1024.653 121.453 1071.766 121.453"/>
    <polygon fill="#000028" points="1357.501 334.595 1357.501 167.538 1346.235 190.258 1265.672 334.595 1241.091 334.595 1161.558 190.258 1150.292 167.538 1150.292 334.595 1111.035 334.595 1111.035 121.454 1168.045 121.454 1244.509 264.825 1255.095 286.587 1265.672 264.825 1341.116 121.454 1397.437 121.454 1397.437 334.595"/>
    <path fill="#000028" d="M1620.25224,184.820882 C1620.25224,167.219405 1607.61711,154.101069 1576.55726,154.101069 L1501.11341,154.101069 L1501.11341,222.905217 L1578.26641,222.905217 C1609.32626,222.905217 1620.25224,208.820456 1620.25224,191.541121 L1620.25224,184.820882 Z M1572.11886,254.269314 L1501.11341,254.269314 L1501.11341,334.598985 L1460.1477,334.598985 L1460.1477,121.457353 L1572.11886,121.457353 C1634.24751,121.457353 1661.55799,147.694024 1661.55799,184.820882 L1661.55799,190.583643 C1661.55799,227.701553 1634.24751,254.269314 1572.11886,254.269314 L1572.11886,254.269314 Z"/>
    <polygon fill="#000028" points="1884.754 334.595 1884.754 242.749 1747.862 242.749 1747.862 334.595 1706.905 334.595 1706.905 121.454 1747.862 121.454 1747.862 211.707 1884.754 211.707 1884.754 121.454 1925.72 121.454 1925.72 334.595"/>
    <path fill="#000028" d="M2173.07733,214.90178 C2173.07733,178.419206 2146.10689,147.055109 2096.27332,147.055109 C2046.43081,147.055109 2019.80041,178.419206 2019.80041,214.90178 L2019.80041,240.825257 C2019.80041,277.307832 2046.43081,309.316212 2096.27332,309.316212 C2146.10689,309.316212 2173.07733,277.307832 2173.07733,240.825257 L2173.07733,214.90178 Z M2096.27332,342.273122 C2023.21869,342.273122 1978.49465,293.62969 1978.49465,241.469541 L1978.49465,214.90178 C1978.49465,161.775206 2023.21869,114.089251 2096.27332,114.089251 C2169.66799,114.089251 2214.38308,161.775206 2214.38308,214.90178 L2214.38308,241.469541 C2214.38308,293.62969 2169.66799,342.273122 2096.27332,342.273122 L2096.27332,342.273122 Z"/>
    <polygon fill="#000028" points="2450.893 334.595 2323.566 199.86 2307.172 180.021 2307.172 334.595 2266.556 334.595 2266.556 121.454 2304.443 121.454 2427.68 256.512 2444.405 276.35 2444.405 121.454 2484.691 121.454 2484.691 334.595"/>
    <polygon fill="#000028" points="2667.018 249.146 2667.018 334.595 2626.052 334.595 2626.052 248.824 2523.646 121.453 2571.431 121.453 2648.244 220.019 2720.958 121.453 2768.063 121.453"/>
  </g>
</svg>
